# AST/ASF file generated using VICON BodyLanguage
# -----------------------------------------------
:version 1.10
:name VICON
:units
  mass 1.0
  length 0.45
  angle deg
:documentation
   .ast/.asf automatically generated from VICON data using
   VICON BodyBuilder and BodyLanguage model FoxedUp or BRILLIANT.MOD
:root
   order TX TY TZ RX RY RZ
   axis XYZ
   position 0 0 0  
   orientation 0 0 0 
:bonedata
  begin
     id 1 
     name lhipjoint
     direction 0.573633 -0.743009 0.344793 
     length 2.46257 
     axis 0 0 0  XYZ
  end
  begin
     id 2 
     name lfemur
     direction 0.34202 -0.939693 0  
     length 7.3842  
     axis 0 0 20  XYZ
    dof rx ry rz
    limits (-160.0 20.0)
           (-70.0 70.0)
           (-60.0 70.0)
  end
  begin
     id 3 
     name ltibia
     direction 0.34202 -0.939693 0   
     length 7.50407   
     axis 0 0 20   XYZ
    dof rx
    limits (-10.0 170.0)
  end
  begin
     id 4 
     name lfoot
     direction 0.110749 -0.304281 0.946123   
     length 1.95925   
     axis -90 7.62852e-016 20   XYZ
    dof rx rz
    limits (-45.0 90.0)
           (-70.0 20.0)
  end
  begin
     id 5 
     name ltoes
     direction 1.53554e-011 -4.21843e-011 1   
     length 0.978318   
     axis -90 7.62852e-016 20   XYZ
    dof rx
    limits (-90.0 20.0)
  end
  begin
     id 6 
     name rhipjoint
     direction -0.488109 -0.791693 0.367385   
     length 2.31113  
     axis 0 0 0  XYZ 
  end
  begin
     id 7 
     name rfemur
     direction -0.34202 -0.939693 0   
     length 7.40965   
     axis 0 0 -20   XYZ
    dof rx ry rz
    limits (-160.0 20.0)
           (-70.0 70.0)
           (-70.0 60.0)
  end
  begin
     id 8 
     name rtibia
     direction -0.34202 -0.939693 0   
     length 7.55548   
     axis 0 0 -20   XYZ
    dof rx
    limits (-10.0 170.0)
 end
 begin
     id 9 
     name rfoot
     direction -0.127594 -0.350561 0.927808   
     length 2.07199  
     axis -90 -7.62852e-016 -20   XYZ
    dof rx rz
    limits (-45.0 90.0)
           (-20.0 70.0)
  end
  begin
     id 10 
     name rtoes
     direction -1.53542e-011 -4.21909e-011 1   
     length 1.02667   
     axis -90 -7.62852e-016 -20   XYZ
    dof rx
    limits (-90.0 20.0)
  end
  begin
     id 11 
     name lowerback
     direction -0.0103342 0.997298 -0.0727278   
     length 2.02836   
     axis 0 0 0   XYZ
    dof rx ry rz
    limits (-20.0 45.0)
           (-30.0 30.0)
           (-30.0 30.0)
  end
  begin
     id 12 
     name upperback
     direction 0.0171146 0.999786 -0.011606   
     length 2.03179   
     axis 0 0 0   XYZ
    dof rx ry rz
    limits (-20.0 45.0)
           (-30.0 30.0)
           (-30.0 30.0)
  end
  begin
     id 13 
     name thorax
     direction 0.0216927 0.999513 0.0224343   
     length 2.03882   
     axis 0 0 0   XYZ
    dof rx ry rz
    limits (-20.0 45.0)
           (-30.0 30.0)
           (-30.0 30.0)
  end
  begin
     id 14 
     name lowerneck
     direction 0.000989287 0.993907 0.110221   
     length 1.75428   
     axis 0 0 0   XYZ
    dof rx ry rz
    limits (-20.0 45.0)
           (-30.0 30.0)
           (-30.0 30.0)
  end
  begin
     id 15 
     name upperneck
     direction -0.0172474 0.994813 -0.100253   
     length 1.77058   
     axis 0 0 0   XYZ
    dof rx ry rz
    limits (-20.0 45.0)
           (-30.0 30.0)
           (-30.0 30.0)
  end
  begin
     id 16
     name head
     direction -0.00486455 0.99894 -0.0457663  
     length 1.77427  
     axis 0 0 0   XYZ
    dof rx ry rz
    limits (-20.0 45.0)
           (-30.0 30.0)
           (-30.0 30.0)
  end
  begin
     id 17 
     name lclavicle
     direction 0.927314 0.333734 -0.169441  
     length 3.97584  
     axis 0 0 0   XYZ
    dof ry rz
    limits (-20.0 10.0)
           (0.0 20.0)
  end
  begin
     id 18 
     name lhumerus
     direction 1 -4.48965e-011 -3.25313e-028   
     length 4.76468   
     axis 180 -30 -90   XYZ
    dof rx ry rz
    limits (-60.0 90.0)
           (-90.0 90.0)
           (-90.0 90.0)
  end
  begin
     id 19
     name lradius
     direction 1 -4.48969e-011 -2.8465e-028   
     length 3.52712   
     axis -180 -30 -90   XYZ
    dof rx
    limits (-10.0 170.0)
  end
  begin
     id 20
     name lwrist
     direction 1 -4.4896e-011 -7.78665e-028   
     length 1.76356   
     axis 1.91374e-015 90 90   XYZ
    dof ry
    limits (-180.0 0.0)
 end
  begin
     id 21 
     name lhand
     direction 1 -4.48959e-011 -1.55733e-027   
     length 0.859564   
     axis 9.9371e-016 90 90   XYZ
    dof rx rz
    limits (-90.0 90.0)
           (-45.0 45.0)
  end
  begin
     id 22 
     name lfingers
     direction 1 -4.48965e-011 -3.11466e-027   
     length 0.693002   
     axis 1.98742e-015 90 90   XYZ
    dof rx
    limits (0.0 90.0)
  end
  begin
     id 23
     name lthumb
     direction 0.707107 -6.34948e-011 0.707107   
     length 0.995017   
     axis -90 45 2.85299e-015   XYZ
    dof rx rz
    limits (-45.0 45.0)
           (-45.0 45.0)
  end
  begin
     id 24 
     name rclavicle
     direction -0.899388 0.348209 -0.264294   
     length 3.68366  
     axis 0 0 0   XYZ 
    dof ry rz
    limits (-10.0 20.0)
           (-20.0 0.0)
  end
  begin
     id 25 
     name rhumerus
     direction -1 -4.48965e-011 -3.01536e-027  
     length 4.90577   
     axis 180 30 90   XYZ
    dof rx ry rz
    limits (-90.0 60.0)
           (-90.0 90.0)
           (-90.0 90.0)
  end
  begin
     id 26 
     name rradius
     direction -1 -4.48966e-011 3.93291e-027   
     length 3.42692   
     axis -180 30 90   XYZ
    dof rx
    limits (-10.0 170.0)
  end
  begin
     id 27 
     name rwrist
     direction -1 -4.48969e-011 -7.78665e-028   
     length 1.71346   
     axis 1.91374e-015 -90 -90   XYZ
    dof ry
    limits (-180.0 0.0)
  end
  begin
     id 28
     name rhand
     direction -1 -4.48967e-011 -1.55733e-027   
     length 0.740957   
     axis 9.9371e-016 -90 -90   XYZ
    dof rx rz
    limits (-90.0 90.0)
           (-45.0 45.0)
  end
  begin
     id 29
     name rfingers
     direction -1 -4.48949e-011 -3.11466e-027   
     length 0.597378   
     axis 1.98742e-015 -90 -90   XYZ
    dof rx
    limits (0.0 90.0)
  end
  begin
     id 30
     name rthumb
     direction -0.707107 -6.34931e-011 0.707107   
     length 0.857719   
     axis -90 -45 -2.85299e-015   XYZ
    dof rx rz
    limits (-45.0 45.0)
           (-45.0 45.0)
  end
:hierarchy
  begin
    root lhipjoint rhipjoint lowerback
    lhipjoint lfemur
    lfemur ltibia
    ltibia lfoot
    lfoot ltoes
    rhipjoint rfemur
    rfemur rtibia
    rtibia rfoot
    rfoot rtoes
    lowerback upperback
    upperback thorax
    thorax lowerneck lclavicle rclavicle
    lowerneck upperneck
    upperneck head
    lclavicle lhumerus
    lhumerus lradius
    lradius lwrist
    lwrist lhand lthumb
    lhand lfingers
    rclavicle rhumerus
    rhumerus rradius
    rradius rwrist
    rwrist rhand rthumb
    rhand rfingers
  end

#!OML:ASF E:\I on waltz\AllaLogoMonkeySwing\Project 1\Capture day 1\Session 1\Subject1.ASF
:FULLY-SPECIFIED
:DEGREES
129
root -1.2168 14.7552 -3.91098 5.18139 -15.8424 -8.15303
lowerback 21.9171 -0.145601 5.18515
upperback 3.28093 1.53215 5.99739
thorax -8.7011 0.632986 3.19567
lowerneck -15.1609 7.51611 5.17494
upperneck 6.26331 10.6315 -14.169
head 5.45615 4.43956 -4.26395
rclavicle -1.90833e-014 -1.01778e-013
rhumerus -16.3513 0.703543 -72.4212
rradius 49.1698
rwrist 8.70953
rhand -10.2704 -32.8313
rfingers 7.12502
rthumb 15.7232 -62.2126
lclavicle -1.90833e-014 -1.01778e-013
lhumerus -46.2225 8.5433 92.7895
lradius 74.0956
lwrist 16.4486
lhand -20.0227 -34.8148
lfingers 7.12502
lthumb 6.31789 -4.92898
rfemur -32.9413 -0.275166 6.4695
rtibia 65.4506
rfoot -32.4541 -10.0646
rtoes -18.3254
lfemur -22.4626 3.98922 -13.7938
ltibia 70.9459
lfoot -187.604 -9.68285
ltoes -22.4271
130
root -1.18484 14.7921 -3.33041 5.48337 -14.871 -9.37265
lowerback 22.502 -0.0117809 6.79674
upperback 3.22644 2.18549 6.34267
thorax -9.0427 0.888271 2.48105
lowerneck -15.4416 7.03662 4.99369
upperneck 6.29778 10.001 -14.0628
head 5.43564 4.12327 -4.26754
rclavicle -4.33351e-014 -2.70347e-014
rhumerus -15.078 1.90831 -72.8415
rradius 50.4735
rwrist 9.09945
rhand -9.94661 -32.126
rfingers 7.12502
rthumb 16.0351 -61.4825
lclavicle -4.33351e-014 -2.70347e-014
lhumerus -47.2505 7.51573 93.709
lradius 74.8284
lwrist 14.215
lhand -19.4081 -36.7121
lfingers 7.12502
lthumb 6.91118 -6.84488
rfemur -29.1822 -0.385949 7.34928
rtibia 63.6019
rfoot -33.7147 -11.1812
rtoes -18.8216
lfemur -29.0383 5.91231 -12.1654
ltibia 70.7098
lfoot -189.488 -7.36862
ltoes -24.8879
131
root -1.13152 14.871 -2.72805 5.78407 -14.061 -9.74009
lowerback 22.6585 0.376152 7.51637
upperback 3.07535 2.90779 6.39342
thorax -9.26123 1.20024 1.91864
lowerneck -15.7823 6.45327 4.53407
upperneck 6.63557 9.27375 -13.5558
head 5.4745 3.7643 -4.10741
rclavicle 2.94201e-014 -1.59028e-015
rhumerus -14.5306 3.47212 -73.2615
rradius 52.5986
rwrist 7.80977
rhand -10.7252 -32.0958
rfingers 7.12502
rthumb 15.2852 -61.511
lclavicle 2.94201e-014 -1.59028e-015
lhumerus -48.3499 6.68158 94.3521
lradius 75.5176
lwrist 10.4568
lhand -19.0623 -37.106
lfingers 7.12502
lthumb 7.24498 -7.24999
rfemur -25.1867 -0.524654 7.21157
rtibia 60.7581
rfoot -34.5692 -11.9281
rtoes -19.2278
lfemur -35.5464 7.95603 -11.5461
ltibia 71.6677
lfoot -191.208 -7.05513
ltoes -23.1473
132
root -1.04134 15.0137 -2.07059 5.69862 -13.5321 -9.41313
lowerback 22.7851 0.966133 7.68808
upperback 2.94579 3.73217 6.18867
thorax -9.43498 1.57446 1.34633
lowerneck -16.0572 5.81556 4.10879
upperneck 7.21604 8.49791 -13.0545
head 5.5831 3.37634 -3.96033
rclavicle -2.0276e-014 -5.56597e-014
rhumerus -14.6846 4.83388 -73.4875
rradius 54.7859
rwrist 6.48923
rhand -12.4024 -31.4411
rfingers 7.12502
rthumb 13.6692 -60.9723
lclavicle -2.0276e-014 -5.56597e-014
lhumerus -49.4513 5.90742 94.9266
lradius 75.9831
lwrist 8.68853
lhand -18.6441 -37.5675
lfingers 7.12502
lthumb 7.64872 -7.72583
rfemur -20.2069 -0.465234 6.10483
rtibia 56.5237
rfoot -34.7711 -12.4819
rtoes -19.1673
lfemur -40.8226 9.82578 -11.7541
ltibia 74.3413
lfoot -192.81 -8.55461
ltoes -21.5069
133
root -0.944494 15.1944 -1.37587 5.53852 -12.5826 -9.65928
lowerback 22.8406 1.45793 8.17966
upperback 2.78098 4.52965 6.2397
thorax -9.59717 1.92664 0.888744
lowerneck -16.0899 5.15241 3.89109
upperneck 7.78538 7.67662 -12.8032
head 5.67248 2.96602 -3.9355
rclavicle 4.77083e-015 -1.27222e-014
rhumerus -15.4599 6.26601 -73.5038
rradius 57.0834
rwrist 5.0427
rhand -13.6955 -30.8269
rfingers 7.12502
rthumb 12.4227 -60.4378
lclavicle 4.77083e-015 -1.27222e-014
lhumerus -50.5455 5.35569 95.4474
lradius 76.2273
lwrist 8.92758
lhand -17.9759 -36.786
lfingers 7.12502
lthumb 8.29363 -6.96883
rfemur -14.2067 -0.0640968 5.88488
rtibia 50.9843
rfoot -33.824 -13.4041
rtoes -18.6625
lfemur -45.0743 11.182 -10.7756
ltibia 78.2966
lfoot -193.9 -10.2378
ltoes -19.7101
